<?xml version="1.0" standalone="no"?>
<!DOCTYPE svg PUBLIC "-//W3C//DTD SVG 20010904//EN"
 "http://www.w3.org/TR/2001/REC-SVG-20010904/DTD/svg10.dtd">
<svg version="1.0" xmlns="http://www.w3.org/2000/svg"
 width="900.000000pt" height="900.000000pt" viewBox="0 0 900.000000 900.000000"
 preserveAspectRatio="xMidYMid meet">

<g transform="translate(0.000000,900.000000) scale(0.100000,-0.100000)"
fill="#000000" stroke="none">
<path d="M5065 7764 c-82 -42 -115 -102 -115 -206 l0 -73 900 3 900 2 0 78 c0
67 -4 84 -26 118 -14 22 -42 51 -62 64 l-36 25 -765 3 c-679 2 -769 0 -796
-14z m1040 -89 c31 -30 32 -71 3 -102 l-21 -23 -494 0 c-480 0 -494 1 -513 20
-30 30 -27 83 6 109 26 21 36 21 511 21 l484 0 24 -25z m263 -53 l3 -73 -73 3
-73 3 -3 59 c-4 86 -3 87 75 84 l68 -3 3 -73z m207 3 l0 -70 -70 0 -70 0 -3
59 c-4 86 -3 87 75 84 l68 -3 0 -70z"/>
<path d="M5417 6954 c-14 -15 -6 -34 14 -34 14 0 19 5 17 17 -3 18 -20 27 -31
17z"/>
<path d="M5590 6940 c0 -15 5 -20 18 -18 9 2 17 10 17 18 0 8 -8 16 -17 18
-13 2 -18 -3 -18 -18z"/>
<path d="M5503 6783 c4 -7 0 -13 -10 -16 -10 -3 0 -5 22 -5 22 0 33 2 25 5 -8
3 -21 11 -29 17 -11 8 -13 8 -8 -1z"/>
<path d="M5590 6646 c0 -2 5 -27 10 -56 8 -43 7 -58 -5 -77 -14 -20 -23 -23
-80 -23 -90 0 -109 19 -99 97 7 55 6 55 -17 48 -42 -13 -46 -22 -39 -72 5 -28
3 -57 -3 -70 -6 -13 -8 -26 -5 -29 3 -3 41 -12 84 -21 70 -15 87 -15 154 -2
66 12 75 16 71 34 -3 11 -4 47 -3 81 1 60 0 61 -34 77 -19 9 -34 15 -34 13z"/>
<path d="M4825 6629 c-44 -5 -123 -15 -175 -23 -52 -9 -133 -21 -178 -26 -336
-44 -587 -224 -699 -500 -60 -149 -101 -486 -73 -604 6 -26 21 -50 45 -70 33
-29 36 -37 47 -113 9 -67 14 -83 28 -83 11 0 26 -21 45 -65 31 -75 99 -143
161 -163 110 -36 278 -22 358 28 55 35 95 113 103 200 5 52 10 63 29 72 15 7
35 8 55 2 28 -8 31 -13 34 -59 3 -58 29 -138 57 -177 47 -67 177 -106 315 -93
135 12 217 76 263 204 17 46 26 58 39 54 16 -4 20 8 30 89 7 51 24 129 37 173
43 143 60 274 53 425 -7 156 -28 225 -85 284 -19 20 -34 36 -32 36 2 0 27 -9
57 -20 29 -12 55 -19 57 -17 6 6 -54 87 -100 135 -43 46 -102 82 -134 82 -10
0 -21 2 -24 5 -8 8 19 134 32 150 11 13 6 15 -31 15 -24 -1 -88 -9 -141 -19
-54 -10 -98 -15 -98 -11 0 4 20 26 44 48 l43 40 -30 6 c-16 3 -35 5 -41 5 -6
-1 -47 -5 -91 -10z m-418 -694 c31 -16 63 -41 77 -61 l23 -34 11 24 c15 33 69
72 117 85 59 16 189 14 233 -4 129 -54 229 -199 286 -414 l25 -93 -27 6 c-134
31 -271 26 -404 -16 -60 -19 -95 -23 -198 -23 -111 1 -134 4 -200 28 -131 48
-316 54 -414 13 -21 -9 -39 -16 -40 -16 -4 0 15 159 25 210 25 125 83 232 146
274 92 61 239 70 340 21z m-168 -535 c154 -26 225 -104 200 -221 -14 -65 -45
-109 -99 -139 -41 -22 -56 -25 -155 -25 -93 0 -116 4 -150 22 -53 28 -78 57
-109 123 -44 93 -30 182 34 215 65 34 166 43 279 25z m831 -11 c31 -7 65 -23
85 -41 33 -28 34 -33 34 -96 -1 -160 -102 -252 -273 -252 -124 1 -198 35 -236
110 -72 140 0 253 180 283 52 9 161 7 210 -4z"/>
<path d="M1233 6464 c-59 -21 -127 -86 -159 -150 -24 -49 -27 -67 -28 -162
l-1 -107 1324 -3 1324 -2 -5 107 c-6 135 -29 194 -99 257 -90 81 -8 76 -1228
75 -932 0 -1092 -3 -1128 -15z m1496 -130 c60 -42 58 -138 -2 -174 -31 -19
-56 -20 -743 -20 -698 0 -712 0 -737 20 -56 45 -56 126 1 170 24 19 44 20 741
20 646 0 719 -2 740 -16z m389 -86 l-3 -103 -100 0 -100 0 -3 89 c-2 49 -1 95
2 103 4 10 32 13 106 13 l101 0 -3 -102z m307 -3 l0 -100 -99 -3 c-73 -2 -102
1 -108 10 -9 16 -11 182 -1 192 4 4 52 5 107 4 l101 -3 0 -100z"/>
<path d="M1692 5704 c-58 -29 -111 -85 -141 -150 -23 -48 -26 -67 -23 -167 2
-64 3 -68 22 -62 28 9 50 -11 50 -44 0 -14 3 -36 6 -48 11 -42 19 -24 16 37
-3 47 1 67 16 92 11 18 26 56 33 83 6 28 13 51 14 53 1 1 40 -18 86 -42 98
-52 293 -132 328 -134 30 -1 40 -17 42 -62 1 -34 2 -33 9 9 4 24 15 50 25 57
15 11 17 26 13 111 -3 90 -7 104 -39 163 -25 47 -49 74 -83 98 l-48 32 -137 0
c-127 0 -141 -2 -189 -26z"/>
<path d="M6165 5451 c-96 -44 -137 -116 -143 -248 l-4 -93 1096 0 1096 0 0 71
c0 100 -16 151 -63 205 -79 90 -1 84 -1032 84 -865 0 -912 -1 -950 -19z m1239
-92 c14 -7 32 -27 41 -45 14 -29 14 -37 1 -68 -8 -19 -23 -39 -34 -45 -14 -8
-206 -11 -607 -11 -401 0 -593 3 -607 11 -31 17 -50 71 -37 108 22 61 8 60
641 61 411 0 584 -3 602 -11z m334 -81 l3 -88 -85 0 c-67 0 -85 3 -90 16 -11
29 -6 140 6 152 9 9 38 12 88 10 l75 -3 3 -87z m250 80 c12 -12 17 -124 6
-152 -5 -13 -23 -16 -90 -16 l-84 0 0 83 c0 46 3 87 7 90 12 12 148 8 161 -5z"/>
<path d="M1714 5356 c-30 -13 -54 -36 -37 -36 4 0 26 12 48 25 44 27 38 32
-11 11z"/>
<path d="M1732 5283 c2 -20 9 -28 23 -28 14 0 21 8 23 28 3 23 0 27 -23 27
-23 0 -26 -4 -23 -27z"/>
<path d="M1976 5293 c-8 -21 17 -48 38 -40 9 4 16 18 16 32 0 20 -5 25 -24 25
-13 0 -27 -8 -30 -17z"/>
<path d="M1578 5135 c-3 -3 1 -34 8 -68 20 -93 17 -194 -6 -246 -23 -50 -26
-79 -4 -39 14 26 42 48 62 48 5 0 14 -31 20 -69 11 -66 11 -71 -17 -132 l-29
-64 29 -13 c102 -43 264 -55 387 -27 103 24 103 24 63 100 -34 63 -34 65 -23
126 6 34 14 64 17 67 11 11 40 -14 55 -46 8 -17 21 -32 28 -32 22 0 25 28 6
75 -14 38 -16 64 -11 158 4 62 10 124 13 140 11 47 -21 32 -55 -27 -30 -54
-89 -110 -148 -140 -37 -19 -44 -51 -14 -61 24 -7 44 -90 39 -162 -4 -64 -25
-75 -139 -71 -128 4 -143 25 -123 172 6 38 12 50 30 57 37 13 32 53 -10 78
-44 28 -112 102 -133 146 -15 32 -32 43 -45 30z"/>
<path d="M1827 5065 c-40 -16 -14 -35 49 -35 58 0 93 23 53 35 -36 12 -74 12
-102 0z"/>
<path d="M6554 4826 c-49 -22 -103 -75 -132 -130 -26 -49 -27 -55 -25 -200 2
-122 6 -154 20 -175 10 -14 25 -48 35 -75 10 -27 39 -82 65 -122 39 -58 51
-71 64 -63 15 8 16 0 11 -78 -6 -108 -2 -113 114 -113 121 0 123 3 98 159 -7
42 -6 43 15 31 16 -8 26 -8 36 0 17 14 115 207 115 226 0 9 8 18 19 21 10 2
24 16 30 29 15 34 14 110 -3 126 -8 9 -15 46 -18 100 -6 111 -47 204 -111 246
-38 25 -48 27 -171 29 -93 2 -140 -1 -162 -11z m22 -396 c0 -21 -11 -26 -21
-10 -7 11 2 30 13 30 4 0 8 -9 8 -20z m81 5 c2 -6 -6 -16 -17 -23 -18 -11 -20
-10 -18 13 2 25 27 32 35 10z m146 -7 c8 -28 5 -31 -18 -14 -10 7 -15 18 -11
24 11 18 23 14 29 -10z m70 8 c6 -15 -1 -26 -15 -26 -4 0 -8 9 -8 20 0 23 15
27 23 6z"/>
<path d="M5295 4215 c-126 -189 -336 -286 -670 -310 -235 -17 -495 84 -770
299 l-30 23 -231 -122 c-271 -144 -365 -204 -456 -297 -77 -78 -72 -70 -523
-862 l-319 -559 18 -91 c41 -205 122 -398 196 -471 l39 -38 20 46 c30 70 100
140 174 172 49 23 81 29 158 33 l96 5 -31 148 -31 148 60 64 c33 36 63 65 68
66 4 0 7 -262 7 -584 0 -644 -2 -618 61 -651 34 -17 379 -21 379 -4 0 6 72 10
195 10 123 0 195 -4 195 -10 0 -7 202 -10 585 -10 383 0 585 3 585 10 0 13
387 14 392 0 2 -6 86 -11 214 -12 316 -4 298 -29 301 427 l2 330 67 9 c129 18
260 -23 350 -110 54 -53 42 -60 131 81 71 113 125 228 154 327 l22 76 -106
279 c-58 153 -116 305 -127 338 -12 33 -28 74 -36 91 -7 17 -58 148 -113 291
-54 143 -112 286 -129 319 -86 170 -245 316 -467 427 -57 28 -272 119 -372
158 -20 7 -27 1 -58 -46z m632 -1727 c-4 -712 -6 -773 -26 -916 -11 -83 -31
-182 -43 -220 l-23 -67 -1312 -3 -1312 -2 -16 29 c-41 80 -73 329 -83 646 -8
227 -8 328 -4 913 l2 382 1411 0 1411 0 -5 -762z m103 -30 c79 -91 77 -77 21
-181 -85 -156 -80 -159 -81 51 0 100 3 182 8 182 4 0 27 -23 52 -52z"/>
<path d="M6456 3994 c-9 -8 -16 -21 -16 -29 0 -7 -3 -20 -6 -29 -4 -10 7 -21
35 -36 l41 -20 0 27 c0 53 -13 103 -26 103 -7 0 -20 -7 -28 -16z"/>
<path d="M6893 3950 c-5 -33 -7 -64 -4 -69 4 -5 20 -3 40 5 31 13 33 17 28 50
-6 34 -31 74 -47 74 -4 0 -12 -27 -17 -60z"/>
<path d="M3891 1194 c0 -11 3 -14 6 -6 3 7 2 16 -1 19 -3 4 -6 -2 -5 -13z"/>
<path d="M5072 1185 c0 -16 2 -22 5 -12 2 9 2 23 0 30 -3 6 -5 -1 -5 -18z"/>
<path d="M5451 1174 c0 -11 3 -14 6 -6 3 7 2 16 -1 19 -3 4 -6 -2 -5 -13z"/>
<path d="M4282 1110 l-1513 -5 23 -44 c28 -53 91 -99 180 -132 l63 -24 1552
-3 1551 -2 30 25 c29 24 112 169 102 178 -10 10 -527 12 -1988 7z"/>
</g>
</svg>
