<?xml version="1.0" standalone="no"?>
<!DOCTYPE svg PUBLIC "-//W3C//DTD SVG 20010904//EN"
 "http://www.w3.org/TR/2001/REC-SVG-20010904/DTD/svg10.dtd">
<svg version="1.0" xmlns="http://www.w3.org/2000/svg"
 width="1280.000000pt" height="720.000000pt" viewBox="0 0 1280.000000 720.000000"
 preserveAspectRatio="xMidYMid meet">

<g transform="translate(0.000000,720.000000) scale(0.100000,-0.100000)"
fill="#000000" stroke="none">
<path d="M3913 4980 c-79 -32 -171 -344 -208 -702 -6 -53 -8 -57 -26 -48 -27
15 -69 1 -81 -26 -6 -13 -16 -24 -21 -24 -5 0 -4 8 3 18 7 9 -22 -19 -64 -63
-84 -88 -90 -88 -102 -5 -8 50 15 157 42 198 9 14 33 32 55 41 21 9 39 19 39
24 0 4 -16 15 -35 24 -31 15 -40 15 -73 3 -20 -7 -43 -20 -49 -29 -20 -25 -53
-139 -53 -182 0 -46 27 -121 63 -173 23 -35 27 -74 6 -60 -5 3 -6 -3 -2 -12 5
-13 3 -15 -8 -9 -11 7 -11 5 1 -10 14 -17 13 -18 -4 -11 -19 7 -19 6 -1 -14
10 -11 15 -23 12 -27 -4 -3 -7 -2 -7 4 0 6 -7 14 -16 17 -15 6 -15 4 -3 -11
12 -15 12 -16 -3 -11 -16 7 -35 -18 -23 -30 3 -3 5 0 5 6 0 7 4 12 9 12 5 0 7
-9 4 -21 -3 -11 -11 -18 -19 -15 -7 3 -17 -8 -23 -26 -16 -44 -13 -58 4 -23
12 24 14 25 8 5 -3 -14 -6 -30 -6 -37 0 -6 -6 -9 -13 -6 -15 6 -28 -48 -18
-79 30 -97 140 -123 217 -51 46 44 86 107 96 154 13 59 -4 97 -79 167 l-61 57
49 66 c54 71 105 119 127 119 7 0 20 3 29 6 14 5 16 -7 16 -99 0 -122 24 -277
45 -293 8 -6 15 -18 15 -27 0 -21 27 -47 50 -47 15 0 21 12 30 58 6 31 20 98
32 147 12 50 23 101 24 115 3 47 4 50 17 47 6 -1 12 7 12 18 0 11 12 33 27 50
l28 30 0 -60 c0 -79 15 -177 32 -211 18 -38 74 -74 114 -74 24 0 39 8 58 31
14 17 26 38 26 47 1 9 13 -7 28 -37 34 -66 85 -101 128 -86 36 13 65 64 105
185 29 90 30 97 16 130 -13 31 -15 33 -22 15 -49 -129 -117 -265 -134 -265
-28 0 -42 166 -27 297 7 56 6 62 -13 68 -30 9 -58 -2 -65 -28 -4 -12 -9 -65
-12 -117 -7 -105 -27 -152 -78 -180 -49 -26 -59 6 -75 222 -4 62 -13 113 -20
122 -15 18 -53 21 -82 6 -30 -16 -127 -225 -145 -310 -6 -30 -8 -32 -15 -15
-4 11 -8 44 -8 73 -1 46 9 72 88 230 128 256 200 483 201 630 0 57 -3 67 -29
93 -24 23 -38 29 -73 28 -24 0 -53 -4 -65 -9z m102 -66 c13 -35 16 -60 10
-112 -7 -73 -38 -198 -58 -241 -7 -14 -13 -38 -12 -53 0 -15 -3 -24 -9 -21 -5
4 -7 -3 -4 -15 4 -14 2 -20 -5 -15 -7 4 -8 0 -4 -11 4 -9 3 -15 -2 -12 -5 3
-36 -50 -69 -119 -34 -69 -63 -125 -66 -125 -13 0 27 320 54 437 37 155 109
333 135 333 7 0 20 -21 30 -46z m32 -116 c-3 -8 -6 -5 -6 6 -1 11 2 17 5 13 3
-3 4 -12 1 -19z m-20 -120 c-3 -8 -6 -5 -6 6 -1 11 2 17 5 13 3 -3 4 -12 1
-19z m-72 -466 c-1 -15 -7 -36 -14 -47 -10 -15 -11 -16 -7 -2 16 49 14 47 -15
-12 -18 -35 -32 -77 -32 -93 0 -20 -3 -25 -9 -16 -6 8 -7 2 -4 -17 4 -18 3
-25 -2 -17 -6 9 -15 -7 -27 -48 -10 -33 -20 -58 -23 -55 -12 12 77 256 114
313 19 29 21 28 19 -6z m-407 -65 c-13 -14 -30 -35 -39 -48 -10 -13 -19 -22
-23 -19 -3 3 13 27 36 53 22 27 42 46 45 44 2 -3 -6 -16 -19 -30z m926 -49
c-12 -39 -67 -159 -71 -155 -4 5 67 177 74 177 2 0 1 -10 -3 -22z m-467 -30
c-3 -8 -6 -5 -6 6 -1 11 2 17 5 13 3 -3 4 -12 1 -19z m10 -75 c-3 -10 -5 -2
-5 17 0 19 2 27 5 18 2 -10 2 -26 0 -35z m-468 -97 c34 -41 1 -142 -71 -214
-65 -66 -118 -70 -118 -9 0 51 27 144 65 225 l35 74 38 -31 c22 -17 45 -37 51
-45z"/>
<path d="M2880 4921 c-48 -50 -112 -182 -169 -346 -45 -129 -111 -367 -111
-401 0 -11 -18 -39 -39 -61 l-39 -39 15 -55 c9 -30 16 -63 16 -74 0 -60 -24
-512 -28 -525 -8 -24 37 -68 75 -75 l35 -6 -3 208 c-2 156 2 242 15 342 l18
134 115 39 c126 43 239 72 247 64 3 -3 7 -105 8 -228 2 -133 7 -238 14 -260
14 -44 44 -68 84 -68 28 0 29 2 22 33 -4 17 -9 128 -12 246 -4 198 -4 213 12
207 21 -8 81 27 96 55 23 45 -16 109 -67 109 -12 0 -25 7 -28 16 -3 9 -6 118
-6 243 0 246 -8 304 -56 390 -33 60 -66 83 -126 89 -47 4 -50 3 -88 -37z m114
-39 c29 -57 48 -186 53 -367 2 -99 1 -204 -4 -234 l-8 -54 -169 -34 c-93 -19
-171 -32 -173 -29 -2 2 1 30 7 63 7 32 16 79 20 105 5 25 15 57 24 70 8 13 18
43 22 68 4 25 12 52 19 60 6 8 17 35 24 60 24 85 147 320 167 320 2 0 10 -13
18 -28z m-118 -84 c-65 -130 -119 -277 -162 -443 -54 -203 -55 -207 -59 -203
-2 2 9 57 25 123 48 201 144 460 216 582 41 71 34 49 -20 -59z m-4 65 c-16 -6
-42 -57 -42 -83 0 -11 -9 -28 -20 -37 -11 -10 -20 -29 -20 -43 0 -14 -6 -34
-14 -45 -7 -11 -17 -36 -21 -55 -4 -19 -12 -41 -17 -47 -6 -7 -8 -13 -5 -13 3
0 -6 -30 -19 -67 -13 -38 -24 -77 -24 -89 0 -11 -3 -24 -7 -28 -4 -3 -8 -12
-10 -19 -20 -94 -44 -191 -48 -195 -46 -46 87 423 172 608 42 92 60 120 76
119 9 0 9 -2 -1 -6z m212 -230 c9 -148 10 -229 2 -241 -3 -6 -2 -13 4 -17 12
-7 8 -87 -5 -97 -6 -5 -4 -12 5 -18 12 -7 12 -12 3 -21 -7 -7 -15 -11 -17 -8
-7 7 -12 499 -5 499 4 0 9 -44 13 -97z m43 -90 c-3 -10 -5 -4 -5 12 0 17 2 24
5 18 2 -7 2 -21 0 -30z m0 -260 c-2 -27 -3 -5 -3 47 0 52 1 74 3 48 2 -27 2
-69 0 -95z m-88 -97 c-2 -2 -44 -11 -94 -20 -49 -8 -106 -18 -125 -22 -70 -14
-21 7 61 25 76 17 169 27 158 17z m-324 -66 c-3 -5 -14 -10 -23 -9 -14 0 -13
2 3 9 27 11 27 11 20 0z m369 -175 c-2 -97 -6 -180 -9 -185 -5 -8 6 -71 21
-125 6 -19 5 -19 -11 -3 -13 12 -20 41 -26 100 -8 89 -4 372 6 388 17 28 22
-15 19 -175z m35 -107 c-2 -142 -4 -185 -9 -143 -14 112 -10 345 6 345 2 0 3
-91 3 -202z m-514 130 c-4 -11 -14 -145 -36 -447 -1 -9 -5 2 -9 24 -20 95 12
435 40 435 5 0 7 -6 5 -12z m15 -94 c-7 -47 -14 -83 -17 -81 -2 3 2 47 8 98 7
52 14 88 17 81 2 -7 -1 -51 -8 -98z"/>
<path d="M5367 4910 c-101 -57 -158 -103 -237 -187 -161 -172 -290 -426 -290
-569 0 -59 60 -133 108 -134 30 0 36 20 18 63 -8 20 -12 45 -9 56 7 28 -5 27
-17 -1 -16 -41 -11 5 9 72 27 92 53 156 96 230 55 94 156 221 220 275 31 27
53 50 50 53 -3 3 -20 -8 -38 -24 l-32 -29 25 28 c26 30 68 59 56 38 -11 -17 3
-13 36 11 80 56 216 86 269 58 10 -6 28 -32 40 -57 40 -87 33 -236 -24 -497
-11 -54 -14 -57 -27 -41 -20 24 -72 45 -109 45 -33 0 -95 -46 -84 -62 3 -6 2
-8 -4 -5 -21 13 -111 -102 -176 -223 -45 -85 -127 -318 -127 -363 0 -58 30
-126 72 -161 69 -60 121 -44 224 67 54 59 78 98 144 231 43 89 83 179 90 201
7 22 16 45 20 50 10 15 78 232 90 290 19 93 28 237 18 314 -12 98 -36 147
-111 224 -49 49 -72 65 -110 75 -76 19 -115 14 -190 -28z m109 -5 c-11 -8 -25
-15 -30 -15 -6 0 -2 7 8 15 11 8 25 15 30 15 6 0 2 -7 -8 -15z m-86 -34 c0 -4
-26 -24 -58 -44 -115 -71 -284 -272 -366 -434 -14 -29 -28 -53 -31 -53 -6 0
20 71 44 118 12 23 21 47 21 55 0 41 209 295 231 281 5 -3 26 8 47 24 60 47
112 72 112 53z m-200 -218 c-81 -86 -87 -92 -70 -68 36 49 114 135 123 135 6
0 -18 -30 -53 -67z m553 -203 c-10 -36 -13 -61 -13 -95 -1 -65 -99 -375 -119
-375 -5 0 -8 -10 -8 -23 0 -55 -129 -305 -201 -390 -39 -46 -104 -97 -124 -97
-3 0 19 26 51 58 31 31 72 81 91 110 18 28 37 52 42 52 4 0 8 6 8 14 0 7 20
56 44 108 58 122 96 218 136 343 33 104 79 308 81 360 l1 30 9 -35 c5 -19 6
-46 2 -60z m-36 -12 c-3 -7 -5 -2 -5 12 0 14 2 19 5 13 2 -7 2 -19 0 -25z
m-11 -80 c-12 -40 -17 -50 -22 -46 -5 6 13 58 20 58 3 0 4 -6 2 -12z m-217
-121 c-100 -67 -241 -303 -294 -492 -15 -55 -23 -73 -20 -47 5 41 39 152 82
266 10 27 28 60 41 72 12 13 22 33 22 44 0 12 5 18 10 15 6 -3 10 4 10 18 0
13 9 32 20 42 11 10 20 15 20 11 0 -5 25 15 56 43 30 28 63 51 71 51 9 0 2
-10 -18 -23z m131 -22 c0 -43 -100 -301 -162 -420 -72 -136 -179 -255 -230
-255 -20 0 -21 4 -16 103 4 73 13 124 32 181 59 173 177 350 264 395 20 10 53
19 74 19 33 1 38 -2 38 -23z m-89 -332 c-12 -20 -14 -14 -5 12 4 9 9 14 11 11
3 -2 0 -13 -6 -23z m-60 -125 c-61 -125 -172 -248 -225 -248 -14 0 -6 9 25 28
66 43 130 118 180 209 24 45 45 80 47 78 2 -2 -10 -32 -27 -67z"/>
<path d="M8025 4915 c-64 -14 -118 -33 -97 -34 15 -1 16 -21 0 -21 -16 0 -164
-77 -215 -112 -78 -53 -207 -184 -245 -248 -21 -35 -43 -87 -49 -115 -11 -48
-9 -55 15 -108 47 -99 156 -179 289 -213 l66 -16 7 -80 c4 -44 15 -95 25 -116
11 -20 19 -42 19 -49 0 -21 46 -34 75 -21 29 13 30 15 9 77 -9 28 -14 72 -12
107 l3 59 65 -3 c36 -1 80 -5 99 -8 l33 -5 -23 -26 -24 -26 32 23 c48 35 50
18 3 -24 -23 -21 -38 -42 -34 -48 4 -6 3 -8 -3 -5 -6 4 -25 -9 -42 -28 -38
-44 -40 -57 -3 -24 l27 24 -24 -27 c-13 -15 -28 -25 -32 -22 -4 2 -27 -20 -50
-51 -23 -30 -44 -55 -46 -55 -3 0 0 6 6 14 9 10 8 15 -3 19 -10 4 -23 -7 -37
-31 -13 -20 -26 -39 -30 -42 -10 -8 -9 -71 2 -112 12 -48 69 -98 112 -98 33 0
122 43 196 95 89 62 203 193 220 253 16 55 -5 106 -69 165 -54 50 -56 54 -42
75 11 17 11 22 2 22 -9 0 -7 7 6 22 13 15 4 11 -30 -12 l-49 -33 -96 17 c-53
10 -100 19 -105 20 -5 1 22 25 60 53 38 28 130 114 205 190 271 276 318 405
190 515 -81 70 -255 97 -406 63z m25 -15 c0 -5 -15 -10 -32 -9 -28 0 -30 2
-13 9 28 12 45 12 45 0z m335 -53 c17 -9 26 -17 21 -17 -5 0 -3 -7 4 -15 16
-20 14 -95 -4 -138 -24 -59 -81 -136 -172 -235 -82 -88 -278 -262 -296 -262
-15 0 -8 85 27 305 38 241 58 358 61 363 7 11 116 20 214 18 85 -2 123 -7 145
-19z m-506 -109 c-11 -56 -56 -404 -64 -493 -11 -131 -13 -135 -49 -129 -82
15 -153 40 -206 75 -46 29 -61 46 -75 82 -34 91 13 197 149 333 84 84 206 169
247 173 3 1 2 -18 -2 -41z m8 -250 c-3 -8 -6 -5 -6 6 -1 11 2 17 5 13 3 -3 4
-12 1 -19z m453 19 c0 -2 -12 -14 -27 -28 l-28 -24 24 28 c23 25 31 32 31 24z
m-463 -89 c-2 -13 -4 -5 -4 17 -1 22 1 32 4 23 2 -10 2 -28 0 -40z m413 29 c0
-1 -42 -43 -92 -92 l-93 -90 90 93 c83 85 95 97 95 89z m-423 -104 c-3 -10 -5
-4 -5 12 0 17 2 24 5 18 2 -7 2 -21 0 -30z m-10 -100 c-2 -16 -4 -5 -4 22 0
28 2 40 4 28 2 -13 2 -35 0 -50z m243 24 c0 -2 -12 -14 -27 -28 l-28 -24 24
28 c23 25 31 32 31 24z m-253 -114 c-3 -10 -5 -2 -5 17 0 19 2 27 5 18 2 -10
2 -26 0 -35z m383 -88 c-7 -8 -17 -15 -22 -15 -6 0 -5 7 2 15 7 8 17 15 22 15
6 0 5 -7 -2 -15z m-100 -15 c20 -6 21 -8 5 -8 -11 0 -29 3 -40 8 -25 11 1 11
35 0z m-293 -67 c-3 -10 -5 -4 -5 12 0 17 2 24 5 18 2 -7 2 -21 0 -30z m406
-6 c18 -8 38 -21 45 -30 22 -26 4 -82 -49 -148 -27 -34 -49 -65 -49 -70 0 -5
-4 -9 -10 -9 -5 0 -28 -20 -51 -45 -26 -28 -72 -60 -121 -85 -88 -44 -128 -51
-128 -22 0 29 64 153 114 219 48 63 191 203 207 203 5 0 24 -6 42 -13z m28
-204 c-5 -10 -32 -44 -61 -75 -35 -40 -56 -55 -67 -51 -9 4 -14 2 -10 -3 7
-12 -1 -23 -27 -44 -12 -9 -17 -10 -12 -2 11 18 -1 15 -34 -10 -16 -11 -26
-26 -23 -31 3 -6 1 -7 -4 -4 -6 4 -32 -3 -58 -14 -26 -11 -49 -18 -52 -16 -2
3 16 14 41 25 54 25 129 74 172 114 17 16 38 30 45 31 20 4 39 17 39 28 0 6
-6 7 -12 3 -9 -5 -9 -3 1 9 7 9 17 14 22 12 4 -3 16 6 25 20 19 28 30 34 15 8z"/>
<path d="M8164 3668 l-19 -23 23 19 c12 11 22 21 22 23 0 8 -8 2 -26 -19z"/>
<path d="M8109 3623 c-13 -16 -12 -17 4 -4 16 13 21 21 13 21 -2 0 -10 -8 -17
-17z"/>
<path d="M8719 4888 c-63 -25 -135 -219 -186 -498 -36 -200 -17 -682 29 -712
19 -12 58 -21 65 -15 3 4 0 26 -6 49 -6 24 -17 122 -23 219 l-12 177 66 133
c113 231 153 336 183 477 21 102 19 129 -10 157 -26 27 -61 31 -106 13z m71
-45 c5 -116 -54 -307 -148 -488 -57 -109 -56 -72 5 225 28 135 83 257 123 273
8 3 16 6 17 6 1 1 2 -7 3 -16z m15 -131 c-10 -42 -32 -118 -50 -167 -31 -87
-110 -255 -120 -255 -5 0 -1 9 48 112 20 42 37 81 37 85 0 5 9 29 21 53 22 46
68 215 70 259 1 18 3 20 6 8 3 -10 -3 -53 -12 -95z m-248 -324 c-3 -7 -5 -2
-5 12 0 14 2 19 5 13 2 -7 2 -19 0 -25z m-10 -70 c-3 -7 -5 -2 -5 12 0 14 2
19 5 13 2 -7 2 -19 0 -25z m20 0 c-3 -7 -5 -2 -5 12 0 14 2 19 5 13 2 -7 2
-19 0 -25z m-10 -90 c-2 -13 -4 -3 -4 22 0 25 2 35 4 23 2 -13 2 -33 0 -45z
m-20 -10 c-2 -13 -4 -3 -4 22 0 25 2 35 4 23 2 -13 2 -33 0 -45z m-10 -230
c-3 -8 -6 -5 -6 6 -1 11 2 17 5 13 3 -3 4 -12 1 -19z m40 -200 c-3 -8 -6 -5
-6 6 -1 11 2 17 5 13 3 -3 4 -12 1 -19z"/>
<path d="M4259 4404 c-15 -40 -4 -70 32 -84 39 -17 50 -3 47 60 -3 43 -5 45
-36 48 -27 3 -34 -1 -43 -24z"/>
<path d="M6339 4404 c-15 -40 -4 -70 32 -84 39 -17 50 -3 47 60 -3 43 -5 45
-36 48 -27 3 -34 -1 -43 -24z"/>
<path d="M9783 4414 c-24 -10 -36 -26 -52 -69 -45 -119 -40 -190 19 -288 41
-67 48 -87 30 -87 -5 0 -7 8 -4 18 5 13 4 14 -4 3 -6 -8 -8 -21 -4 -29 3 -10
1 -13 -6 -8 -8 5 -10 1 -5 -10 5 -13 3 -15 -8 -9 -11 7 -11 5 1 -10 14 -17 13
-18 -4 -12 -17 7 -17 6 -5 -10 12 -15 12 -16 -3 -11 -16 7 -35 -18 -23 -30 3
-3 5 0 5 6 0 7 4 12 9 12 5 0 7 -9 4 -21 -3 -12 -11 -18 -19 -15 -8 3 -14 1
-14 -3 0 -5 -3 -18 -6 -28 -6 -16 -5 -16 9 2 15 18 15 16 0 -22 -9 -23 -19
-40 -24 -37 -4 2 -11 -11 -14 -29 -16 -83 69 -160 151 -138 62 16 141 107 163
185 17 63 4 92 -71 165 l-69 67 37 50 c63 83 106 124 146 135 43 11 48 23 17
39 -22 13 -79 -3 -79 -22 0 -5 -4 -7 -9 -4 -5 4 -41 -28 -80 -71 -39 -42 -73
-74 -75 -72 -3 3 -11 26 -18 52 -9 37 -10 59 0 103 21 100 46 133 127 168 18
8 -36 46 -64 45 -14 0 -40 -7 -58 -15z m141 -251 c-16 -16 -39 -42 -50 -59
-12 -16 -25 -26 -28 -23 -4 4 16 32 45 63 28 31 54 55 56 52 3 -3 -8 -18 -23
-33z m-25 -257 c45 -48 20 -141 -60 -224 -65 -66 -119 -70 -119 -9 0 51 27
144 65 225 l35 74 27 -20 c16 -11 39 -32 52 -46z"/>
<path d="M6125 4270 c-3 -5 -4 -14 -1 -18 3 -5 -6 -26 -19 -48 -14 -21 -25
-34 -25 -29 0 13 -57 35 -88 35 -62 0 -100 -55 -127 -185 -24 -113 -18 -160
24 -192 44 -34 78 6 144 167 22 52 46 99 53 103 8 4 14 19 14 32 0 13 3 26 8
28 4 3 5 -59 4 -137 -4 -166 5 -217 44 -235 39 -17 46 -3 33 60 -8 37 -10 111
-5 235 5 161 4 183 -10 188 -23 9 -42 7 -49 -4z m-97 -138 c2 -11 -6 -39 -18
-62 -12 -23 -20 -44 -17 -46 2 -2 12 14 22 36 10 22 22 40 26 40 4 0 -8 -33
-28 -72 -39 -81 -49 -95 -38 -58 5 21 3 20 -14 -7 -11 -18 -23 -33 -26 -33
-12 0 16 108 48 183 20 49 40 57 45 19z m99 -79 c-3 -10 -5 -4 -5 12 0 17 2
24 5 18 2 -7 2 -21 0 -30z"/>
<path d="M9504 4257 c-6 -7 -9 -17 -7 -23 2 -6 -3 -17 -12 -24 -12 -10 -21 -9
-49 4 -19 9 -44 16 -56 16 -105 0 -244 -237 -227 -387 5 -49 44 -97 74 -91 24
4 114 124 107 142 -3 8 0 17 7 22 8 5 10 3 5 -7 -4 -8 2 -3 14 10 11 13 19 30
16 38 -3 7 0 12 7 10 7 -1 11 6 11 15 -1 10 2 15 7 12 5 -2 29 28 55 68 25 40
54 81 62 91 16 18 17 18 23 0 11 -27 9 -141 -4 -203 -11 -52 -14 -55 -54 -70
-48 -17 -134 -85 -132 -103 3 -24 -1 -37 -12 -37 -8 0 -7 6 2 18 11 14 10 13
-9 -2 -22 -19 -30 -32 -13 -21 5 3 12 1 16 -5 3 -5 1 -10 -5 -10 -6 0 -9 -4
-5 -9 3 -5 1 -13 -5 -16 -6 -4 -9 -3 -8 2 2 4 -1 8 -7 8 -5 0 -9 -11 -7 -23 2
-17 -1 -22 -10 -16 -7 4 -10 4 -6 0 9 -11 -12 -66 -24 -63 -10 2 -17 -8 -37
-53 l-11 -25 6 25 c4 19 3 22 -5 10 -6 -8 -8 -22 -5 -32 2 -9 0 -19 -6 -23
-31 -19 3 -113 53 -143 102 -64 178 16 271 287 80 232 101 376 72 511 -19 92
-59 134 -92 97z m-72 -111 c-3 -20 0 -26 8 -21 15 9 1 -17 -34 -64 -14 -19
-23 -38 -20 -42 3 -5 1 -9 -4 -9 -5 0 -23 -22 -41 -50 -33 -51 -51 -67 -30
-27 7 12 36 57 66 101 29 43 52 80 50 82 -2 2 -46 -57 -98 -131 -51 -75 -95
-131 -97 -125 -6 16 34 123 71 193 31 60 100 131 120 124 7 -2 10 -16 9 -31z
m32 -55 c-26 -39 -49 -71 -52 -71 -2 0 4 12 14 28 60 93 79 120 82 117 2 -2
-18 -35 -44 -74z m116 -101 c0 -27 -3 -50 -7 -50 -7 0 -9 33 -5 83 4 37 12 14
12 -33z m-15 -126 c-8 -58 -85 -283 -124 -366 -17 -35 -44 -79 -61 -98 -30
-34 -30 -34 5 23 64 103 149 327 140 367 -4 18 -3 21 4 11 7 -11 13 2 22 47
15 72 24 83 14 16z m-59 -41 c-22 -89 -112 -302 -150 -352 -24 -33 -76 -71
-96 -71 -6 0 -9 28 -8 69 2 38 6 67 9 65 3 -2 11 8 18 22 6 15 7 23 1 19 -25
-16 5 45 72 141 51 75 102 131 80 88 -6 -11 -18 -27 -27 -34 -18 -15 -57 -71
-95 -135 -35 -59 -10 -30 43 51 41 63 135 164 153 164 3 0 3 -12 0 -27z m-25
-159 c-21 -60 -49 -130 -60 -156 -23 -51 -67 -108 -83 -108 -6 0 4 16 21 35
40 46 69 106 116 238 21 59 40 106 42 104 2 -3 -14 -53 -36 -113z m-230 -91
c-12 -20 -14 -14 -5 12 4 9 9 14 11 11 3 -2 0 -13 -6 -23z"/>
<path d="M6565 4213 c-14 -85 -124 -332 -152 -341 -29 -9 -46 157 -30 290 8
62 7 67 -12 73 -61 19 -76 -18 -76 -190 0 -98 3 -115 25 -159 16 -30 39 -56
62 -69 51 -30 85 -17 120 48 l28 50 0 -35 c0 -43 7 -55 44 -74 41 -21 56 -11
56 36 0 56 87 263 120 283 4 2 12 -34 19 -82 6 -47 19 -102 28 -122 36 -73
144 -100 190 -47 22 26 33 96 15 96 -4 0 -25 -18 -46 -40 -68 -72 -85 -53
-106 115 -13 103 -26 130 -69 138 -52 11 -79 -6 -129 -79 -10 -16 -12 -6 -10
61 l3 80 -37 3 c-36 3 -37 2 -43 -35z m114 -108 c-12 -19 -23 -35 -25 -35 -6
0 14 40 29 58 18 23 16 12 -4 -23z m-144 -56 c-13 -40 -47 -111 -51 -106 -2 2
3 21 12 43 9 21 20 49 25 62 11 28 23 29 14 1z"/>
<path d="M6085 4209 c-4 -6 -5 -12 -2 -15 2 -3 7 2 10 11 7 17 1 20 -8 4z"/>
<path d="M8897 4163 c-47 -50 -82 -140 -82 -211 0 -62 1 -65 42 -103 46 -42
73 -48 126 -25 41 17 69 48 101 111 61 123 52 186 -33 229 -68 35 -119 34
-154 -1z m143 -23 c11 -11 23 -19 28 -17 16 5 11 -80 -8 -118 -20 -41 -20 -38
-5 45 3 19 -6 1 -19 -41 -14 -41 -36 -85 -48 -96 -33 -31 -78 -52 -95 -46 -21
8 -12 95 16 159 23 50 86 134 102 134 5 0 18 -9 29 -20z"/>
<path d="M8002 3902 c-68 -77 -68 -78 3 -10 32 31 57 60 54 63 -3 3 -29 -21
-57 -53z"/>
<path d="M3910 2620 c0 -91 3 -110 15 -110 12 0 15 15 15 77 0 42 4 73 8 68 5
-6 22 -40 38 -77 16 -37 32 -68 35 -68 4 0 22 33 40 74 18 41 36 73 38 70 3
-3 6 -30 7 -62 2 -80 3 -82 14 -82 6 0 10 43 10 110 0 138 -12 143 -67 23
l-40 -88 -41 88 c-58 123 -72 119 -72 -23z"/>
<path d="M4286 2722 c-2 -4 -14 -30 -24 -58 -11 -27 -29 -73 -41 -101 -16 -42
-18 -53 -7 -53 8 0 19 14 25 30 9 28 13 30 61 30 48 0 52 -2 61 -30 6 -16 18
-30 26 -30 8 0 13 6 10 13 -74 193 -93 227 -111 199z m38 -79 c9 -26 16 -48
16 -50 0 -2 -18 -3 -41 -3 -29 0 -40 4 -36 13 2 6 10 29 18 50 7 20 16 37 20
37 4 0 14 -21 23 -47z"/>
<path d="M4470 2620 c0 -91 3 -110 15 -110 12 0 15 19 15 110 0 91 -3 110 -15
110 -12 0 -15 -19 -15 -110z"/>
<path d="M4569 2692 c-69 -76 -68 -67 -8 -128 71 -72 96 -70 29 2 l-51 57 33
36 c55 58 63 71 46 71 -8 0 -30 -17 -49 -38z"/>
<path d="M4710 2620 c0 -91 3 -110 15 -110 12 0 15 19 15 110 0 91 -3 110 -15
110 -12 0 -15 -19 -15 -110z"/>
<path d="M4820 2621 c0 -67 4 -111 10 -111 6 0 10 33 10 80 0 44 3 80 8 80 4
0 31 -36 60 -80 72 -111 82 -107 82 30 0 90 -3 110 -15 110 -11 0 -15 -18 -17
-82 l-3 -83 -55 79 c-30 44 -61 81 -67 84 -10 3 -13 -23 -13 -107z"/>
<path d="M5095 2707 c-20 -17 -28 -35 -32 -70 -9 -80 33 -127 112 -127 61 0
75 14 75 70 l0 50 -35 0 c-19 0 -35 -4 -35 -10 0 -5 9 -10 20 -10 16 0 20 -7
20 -35 0 -28 -4 -36 -25 -41 -41 -10 -78 9 -99 51 -19 38 -19 39 0 74 24 45
60 59 114 44 42 -11 54 -1 21 17 -36 19 -107 12 -136 -13z"/>
<path d="M5470 2620 l0 -110 70 0 c84 0 94 18 13 22 l-58 3 -3 38 -3 37 45 0
c58 0 60 18 4 22 -42 3 -43 4 -43 38 l0 35 58 3 c81 4 71 22 -13 22 l-70 0 0
-110z"/>
<path d="M5672 2722 c2 -5 21 -54 42 -110 27 -71 44 -102 54 -100 18 4 105
212 90 217 -15 5 -22 -7 -54 -91 -16 -43 -31 -78 -34 -78 -4 0 -21 38 -39 85
-21 53 -39 85 -48 85 -8 0 -13 -4 -11 -8z"/>
<path d="M5940 2620 l0 -110 70 0 c40 0 70 4 70 10 0 6 -25 10 -55 10 l-55 0
0 40 0 40 40 0 c22 0 40 5 40 10 0 6 -18 10 -40 10 l-40 0 0 40 0 40 55 0 c30
0 55 5 55 10 0 6 -30 10 -70 10 l-70 0 0 -110z"/>
<path d="M6150 2620 c0 -60 4 -110 9 -110 12 0 21 26 21 61 0 24 4 29 25 29
20 0 30 -9 47 -45 12 -25 28 -45 35 -45 18 0 16 7 -8 46 l-21 34 26 31 c29 34
31 41 15 72 -17 32 -28 37 -91 37 l-58 0 0 -110z m111 80 c43 -23 11 -80 -46
-80 -31 0 -33 2 -37 41 -2 22 -2 42 1 45 8 8 62 4 82 -6z"/>
<path d="M6411 2661 c28 -49 39 -79 39 -110 0 -30 4 -41 15 -41 11 0 15 12 15
46 0 34 9 61 35 105 38 66 40 69 25 69 -6 0 -24 -22 -41 -50 -17 -27 -34 -50
-37 -50 -4 0 -19 23 -34 50 -16 28 -35 50 -42 50 -11 0 -3 -20 25 -69z"/>
<path d="M6770 2727 c0 -1 14 -49 30 -107 17 -58 30 -106 30 -107 0 -2 6 -3
14 -3 8 0 22 30 37 80 12 44 26 80 31 80 4 0 8 -5 8 -11 0 -32 42 -149 54
-149 8 0 24 37 41 98 15 53 30 103 32 110 3 6 -2 12 -10 12 -10 0 -22 -26 -38
-80 -12 -44 -26 -80 -31 -80 -4 0 -8 5 -8 11 0 31 -43 150 -52 147 -7 -3 -20
-35 -31 -74 -10 -38 -22 -73 -27 -77 -4 -5 -18 28 -30 72 -14 48 -29 81 -37
81 -7 0 -13 -1 -13 -3z"/>
<path d="M7158 2710 c-88 -68 -42 -200 69 -200 84 0 140 90 102 163 -32 58
-120 78 -171 37z m127 -25 c25 -24 34 -86 17 -111 -14 -20 -57 -44 -80 -44
-36 0 -82 52 -82 92 1 77 92 117 145 63z"/>
<path d="M7410 2620 c0 -91 3 -110 15 -110 11 0 15 12 15 45 0 41 2 45 25 45
18 0 31 -11 51 -45 14 -25 30 -45 35 -45 13 0 11 10 -10 50 -19 35 -19 35 5
57 29 27 31 66 4 93 -16 16 -33 20 -80 20 l-60 0 0 -110z m111 80 c11 -6 19
-21 19 -35 0 -28 -26 -45 -69 -45 -30 0 -31 1 -31 45 0 44 1 45 31 45 17 0 39
-5 50 -10z"/>
<path d="M7640 2619 l0 -112 62 6 c54 5 67 10 90 36 19 22 28 42 28 67 0 77
-45 114 -136 114 l-44 0 0 -111z m131 65 c26 -24 26 -97 0 -123 -18 -18 -86
-39 -96 -30 -3 4 -8 146 -6 173 1 14 81 -1 102 -20z"/>
<path d="M8084 2719 c-30 -15 -54 -61 -54 -104 0 -55 52 -105 110 -105 42 0
80 14 80 29 0 5 -15 4 -34 -1 -70 -22 -126 15 -126 82 0 72 61 108 134 80 31
-11 36 4 7 20 -24 13 -89 12 -117 -1z"/>
<path d="M8327 2710 c-34 -27 -48 -79 -36 -125 25 -88 155 -105 202 -25 27 45
22 102 -12 139 -25 27 -36 31 -79 31 -35 0 -57 -6 -75 -20z m129 -23 c21 -19
27 -32 27 -66 0 -57 -28 -86 -83 -86 -49 0 -78 27 -87 78 -5 31 -1 40 25 67
37 37 80 40 118 7z"/>
<path d="M8580 2646 c0 -104 19 -136 80 -136 52 0 68 8 85 41 21 40 21 179 0
179 -12 0 -15 -16 -15 -84 0 -76 -2 -86 -22 -100 -30 -21 -61 -20 -81 2 -13
14 -17 38 -17 100 0 66 -3 82 -15 82 -12 0 -15 -16 -15 -84z"/>
<path d="M8830 2621 c0 -91 3 -111 15 -111 11 0 15 18 17 83 l3 82 55 -82 c30
-46 61 -83 68 -83 9 0 12 29 12 111 0 84 -3 110 -12 106 -9 -2 -14 -28 -15
-73 -1 -38 -2 -73 -2 -79 -1 -5 -26 26 -56 70 -79 113 -85 111 -85 -24z"/>
<path d="M9070 2720 c0 -5 14 -10 30 -10 33 0 33 2 30 -132 -1 -56 2 -68 14
-68 14 0 16 16 16 100 l0 100 35 0 c19 0 35 5 35 10 0 6 -33 10 -80 10 -47 0
-80 -4 -80 -10z"/>
</g>
</svg>
